<svg width="63" height="42" viewBox="0 0 63 42" fill="none" xmlns="http://www.w3.org/2000/svg">
<rect width="63" height="41.7826" rx="20.7647" fill="#202020"/>
<path d="M50.1415 16.9898C49.3807 15.1941 48.1271 13.6723 46.5078 12.5768C45.6982 12.0287 44.8154 11.609 43.884 11.3225C42.9346 11.0181 41.9301 10.866 40.9016 10.866C39.5986 10.866 38.3265 11.1097 37.1335 11.5965C37.0728 11.6209 37.0116 11.6453 36.9569 11.6696C36.9207 11.6881 36.8839 11.7 36.8535 11.7183C35.8186 12.1749 34.8692 12.8079 34.0168 13.6051C33.7494 13.8607 33.4937 14.1289 33.256 14.4087C32.8785 14.8409 32.4648 15.3587 31.9536 16.0465L31.6854 16.3995C31.4483 16.7217 29.2387 19.9602 28.8429 20.5505C28.6907 20.7816 28.5142 21.0373 28.3257 21.3054L27.9971 21.7738C27.6136 22.3218 27.1571 22.9365 26.7125 23.5089C26.5056 23.7705 26.2987 24.0202 26.1222 24.227C25.9516 24.428 25.7935 24.586 25.6841 24.6895C25.2092 25.1461 24.6611 25.4932 24.0589 25.7369C23.4377 25.9925 22.7744 26.1204 22.0984 26.1204C21.6301 26.1204 21.1675 26.0591 20.717 25.9313C20.6314 25.9134 20.5523 25.8891 20.4673 25.8588C20.3336 25.816 20.1993 25.7613 20.0655 25.7066C19.128 25.3108 18.3309 24.6593 17.7644 23.8133C17.4785 23.3871 17.2533 22.9247 17.107 22.4497C16.9489 21.92 16.8698 21.4088 16.8698 20.8916C16.8698 20.1913 17.0101 19.5096 17.2776 18.8587C17.6735 17.9272 18.331 17.1294 19.1768 16.5576C19.5906 16.2776 20.0537 16.0583 20.5464 15.9061C21.0577 15.742 21.5814 15.663 22.0926 15.663C22.7863 15.6689 23.4503 15.7967 24.059 16.0398C24.6676 16.2954 25.2152 16.6485 25.6842 17.0872C25.7995 17.1966 25.9517 17.3672 26.1223 17.5556C26.4266 17.9147 26.8041 18.3836 27.1994 18.9132C27.2725 19.0108 27.3397 19.1018 27.4128 19.1992C28.0091 18.3165 29.872 15.5832 30.1276 15.2367L29.7442 14.4087C29.5677 14.1893 29.9208 14.6036 29.7442 14.4087C29.4576 14.08 29.2264 13.8302 28.9834 13.599C28.0703 12.7407 27.0229 12.0714 25.8726 11.5964C24.6736 11.1095 23.4016 10.8658 22.0985 10.8658C20.7414 10.8658 19.4266 11.1339 18.1907 11.6576C16.4074 12.406 14.8797 13.6663 13.7835 15.2855C13.2418 16.0827 12.8221 16.9654 12.5178 17.9088C12.2253 18.8765 12.0731 19.8752 12.0731 20.8917C12.0731 22.2488 12.3347 23.5578 12.8584 24.7936C13.6134 26.5828 14.8669 28.1046 16.4863 29.2067C17.3018 29.7482 18.1846 30.1744 19.116 30.4662C20.0778 30.7646 21.0759 30.9168 22.0984 30.9168C23.4014 30.9168 24.6735 30.6671 25.8725 30.1862C26.9377 29.7481 27.918 29.1394 28.7883 28.3542C28.8554 28.2995 28.916 28.2382 28.9766 28.1836C29.2388 27.9464 29.4759 27.6848 29.744 27.3739C30.1275 26.9359 30.5352 26.4187 31.0524 25.7369L31.3146 25.3838C31.4667 25.177 32.696 23.3753 33.6881 21.926C34.2606 21.086 34.7355 20.3923 34.8265 20.2586L35.003 20.0149C35.4293 19.4062 35.8858 18.7856 36.2876 18.2738C36.4945 18.0122 36.7014 17.7626 36.8779 17.5556C37.0485 17.3548 37.2066 17.1966 37.316 17.0932C37.7849 16.6485 38.3324 16.2954 38.9352 16.0464C39.0874 15.9852 39.2396 15.9305 39.3799 15.8877C39.5255 15.8455 39.6658 15.8086 39.818 15.7782C40.1711 15.7052 40.5301 15.6689 40.8951 15.663C41.6197 15.6689 42.3075 15.8086 42.9346 16.0767C43.8721 16.472 44.6692 17.1235 45.2357 17.9694C45.5276 18.3956 45.7469 18.8587 45.8926 19.339C46.0513 19.8383 46.1304 20.362 46.1304 20.8916C46.1304 21.5978 45.99 22.279 45.7226 22.9246C45.3207 23.862 44.6692 24.6592 43.8234 25.2256C43.3912 25.5175 42.9347 25.7369 42.4538 25.8825C41.9486 26.0412 41.4248 26.1203 40.9017 26.1203C40.2258 26.1203 39.5625 25.9925 38.9412 25.7369C38.3391 25.4931 37.791 25.146 37.316 24.696C37.2008 24.586 37.0485 24.4161 36.8719 24.221C36.592 23.8983 36.2389 23.4543 35.7883 22.8574C35.7211 22.7724 35.6605 22.6808 35.5933 22.5899C35.4655 22.7724 35.3377 22.9674 35.198 23.1677C33.6822 25.3838 33.0248 26.339 32.885 26.54L32.7264 26.7533C32.9095 26.9661 33.0795 27.1795 33.2501 27.368C33.5241 27.6908 33.7738 27.9583 34.0169 28.1836C34.9299 29.042 35.9767 29.7113 37.1276 30.1862C38.3266 30.6672 39.5986 30.9168 40.9017 30.9168C42.2588 30.9168 43.5678 30.6553 44.803 30.1316C46.5929 29.3767 48.1205 28.1169 49.216 26.4978C49.7701 25.6697 50.1963 24.7869 50.4763 23.8738C50.7747 22.9121 50.9269 21.914 50.9269 20.8915C50.9268 19.5399 50.6652 18.2256 50.1415 16.9898Z" fill="url(#paint0_linear_522_858)"/>
<defs>
<linearGradient id="paint0_linear_522_858" x1="20.5503" y1="12.8709" x2="27.5805" y2="34.3442" gradientUnits="userSpaceOnUse">
<stop stop-color="#FF7D1A"/>
<stop offset="1" stop-color="#FFC069"/>
</linearGradient>
</defs>
</svg>
